<svg xmlns="http://www.w3.org/2000/svg" width="127" height="27" viewBox="0 0 127 27">
    <path fill="#B1AFAF" fill-rule="evenodd" d="M46.995 7.647c-5.24 4.674-10.626.587-15.539-2.45-3.537 2.478-6.81 5.598-10.257 8.398v12.868h-3.953v-9.936c-2.46 1.64-5.056 2.972-7.959 3.69l-3.28 6.246H1.851l3.174-5.913C2.452 20.154.293 18.754 0 18.063l.14-.386c1.695 1.555 4.524 2.566 7.92 1.717 8.288-2.07 14.477-9.91 22.113-14.965-2.99-1.72-5.776-2.707-8.213-.627l.19-.507c2.89-2.467 6.079-1.48 9.332.304C36.78.402 42.837-1.291 50.758 1.186l.012.517C43.374-.609 37.759 1.127 32.753 4.33c4.907 2.926 9.895 6.876 14.172 2.864l.07.454zM10.37 18.155a19.29 19.29 0 0 1-2.31.74 10.11 10.11 0 0 1-2.312.308L13.48 4.797c.828-1.364 1.345-3.068 3.312-3.068l4.406.038v9.255a87.458 87.458 0 0 1-3.953 3.14V5.12l-.892 1.642-5.983 11.394zM48.445 8.097c0-1.392 1.007-2.246 2.101-2.246 1.066 0 1.901.79 1.901 2.025 0 1.36-.95 2.244-2.16 2.244h-.028c-1.008 0-1.814-.822-1.814-2.023zM54.9 3.819h3.513l-3.945 22.644h-3.513L54.9 3.819zm-13.273 6.864c1.988 0 3.715 1.327 3.715 4.364 0 .664-.086 1.835-.201 2.529l-1.498 8.887h-3.398l1.411-8.348c.087-.54.174-1.233.174-1.804 0-1.517-.548-2.528-1.959-2.528-1.729 0-3.571 2.276-4.119 5.628l-1.18 7.052h-3.37l1.44-8.506c.087-.6.173-1.139.173-1.646 0-1.295-.345-2.528-1.93-2.528-1.756 0-3.685 2.528-4.204 5.724l-1.151 6.956h-3.37l1.815-10.752c.287-1.771.518-3.321.661-4.648h3.053l-.346 2.782h.058c1.383-2.15 3.255-3.162 5.213-3.162 2.447 0 3.542 1.644 3.628 3.351 1.353-2.245 3.255-3.32 5.385-3.351zm6.579.38h3.513l-2.678 15.4h-3.485l2.65-15.4zm16.428 13.453c-.074 0-.131-.075-.117-.155l3.051-17.534c.012-.061.06-.106.117-.106h4.463c3.494 0 6.326 3.11 6.326 6.948 0 5.99-4.422 10.847-9.877 10.847h-3.963zm3.963 1.898h-6.592c-.075 0-.131-.074-.117-.154l3.882-22.31c.011-.061.06-.106.117-.106h6.261c4.695 0 8.5 4.18 8.5 9.335 0 7.31-5.395 13.235-12.051 13.235zm17.91-11.735c1.072 0 1.802.588 1.802 1.659 0 2.006-2.484 2.46-5.651 2.433.487-2.034 1.924-4.092 3.848-4.092zm3.75 1.578c0 3.398-3.483 4.306-7.842 4.226-.099.562-.025 1.766.243 2.462.448 1.113 1.353 1.7 2.516 1.736h2.892v.003c.437.009.788.399.788.88 0 .49-.36.885-.805.885l-.026-.002v.001h-3.173c-3.119 0-4.483-2.326-4.483-5.189 0-3.906 2.632-8.32 6.431-8.32 2.242 0 3.46 1.472 3.46 3.318zm8.048-3.05c1.412 0 2.995.882 2.995 3.61 0 .562-.096 1.391-.219 2.087l-1.175 6.628c-.007.08-.02.157-.041.231l-.008.043h-.006c-.137.418-.5.717-.93.717-.544 0-.987-.487-.987-1.085 0-.115.016-.226.046-.33l1.066-6.244c.086-.388.16-1.003.16-1.538 0-1.312-.464-2.274-1.851-2.274-1.438 0-3.483 1.9-4.02 5.11l-.938 5.462h-.003c-.082.511-.486.9-.973.9-.546 0-.99-.488-.99-1.086 0-.039.003-.077.007-.115h-.003l.014-.082.006-.034 1.37-7.934c.268-1.445.316-1.917.463-2.987.079-.455.44-.8.877-.8.492 0 .891.44.891.98 0 .026-.005.05-.007.075h.004l-.157 1.5h.048c1.047-1.818 2.63-2.835 4.36-2.835zm8.326 1.748l-1.095 6.286c-.122.723-.219 1.39-.219 2.087 0 .775.341 1.23 1.12 1.23h1.722v.002h.012c.475 0 .86.423.86.945 0 .521-.385.944-.86.944l-.015-.001v.003l-2.424.005c-1.803 0-2.485-1.202-2.485-2.513 0-.75.072-1.499.243-2.435l1.168-6.553h-1.442l.001-.004c-.43-.01-.776-.392-.776-.867 0-.479.355-.868.79-.868.015 0 .028.004.04.004v-.004h1.68l.513-2.916c.08-.506.48-.892.965-.892.542 0 .98.483.98 1.077 0 .087-.008.171-.028.252l-.432 2.479h1.984v.004c.012 0 .025-.004.038-.004.437 0 .79.39.79.868 0 .48-.353.869-.79.869-.015 0-.027-.003-.04-.005v.007h-2.3zm11.31 3.843c-.584 3.45-2.583 5.858-4.263 5.858-1.559 0-2.023-1.417-2.023-2.862.024-3.584 2.51-7.088 5.555-7.088.681 0 1.12.106 1.412.187l-.682 3.905zm2.122-5.585c.393.087.687.468.687.926 0 .056-.005.11-.014.163l-1.042 5.887a37.78 37.78 0 0 0-.515 5.289c-.018.54-.42.97-.914.97-.507 0-.917-.453-.917-1.008v-.01l-.003-.001a60.61 60.61 0 0 1 .23-2.592h-.049c-1.29 2.675-2.9 3.639-4.58 3.639-2.069 0-3.385-1.82-3.385-4.281 0-4.494 3.02-9.256 8.16-9.256.786 0 1.63.107 2.343.272v.002zm6.899-6.1l.001-.002-3.208 18.411c-.104.522-.526.913-1.033.913-.583 0-1.055-.519-1.055-1.159 0-.07.005-.137.015-.204h-.003l3.214-18.448c.111-.512.53-.893 1.029-.893.584 0 1.059.521 1.059 1.162 0 .076-.007.149-.02.22z"/>
</svg>
