<svg xmlns="http://www.w3.org/2000/svg" width="58" height="27" viewBox="0 0 58 27">
    <path fill="#B1AFAF" fill-rule="evenodd" d="M46.16 7.672c-5.147 4.59-10.436.578-15.261-2.405-3.475 2.433-6.69 5.497-10.077 8.246v12.642H16.94v-9.761c-2.417 1.612-4.966 2.918-7.817 3.625l-3.222 6.136H1.82l3.117-5.811C2.41 19.956.29 18.58 0 17.903l.138-.38c1.665 1.529 4.444 2.521 7.78 1.687 8.14-2.034 14.218-9.732 21.717-14.698-2.934-1.688-5.672-2.66-8.065-.617l.187-.499c2.839-2.421 5.97-1.452 9.166.3 5.203-3.139 11.153-4.804 18.935-2.37l.01.508C42.604-.438 37.089 1.27 32.173 4.415c4.82 2.874 9.718 6.753 13.92 2.81l.067.447zm1.424.441c0-1.366.99-2.204 2.066-2.204 1.046 0 1.866.775 1.866 1.987 0 1.336-.933 2.205-2.121 2.205h-.029c-.99 0-1.782-.806-1.782-1.988zm-37.397 9.88c-.74.29-1.494.533-2.269.727-.79.198-1.55.293-2.272.302l7.595-14.15c.814-1.34 1.322-3.014 3.253-3.014l4.328.039v9.09a86.727 86.727 0 0 1-3.882 3.086V5.189l-.877 1.613-5.876 11.191zm43.739-14.08h3.451l-3.876 22.242h-3.45l3.875-22.243zm-6.574 7.113h3.45l-2.63 15.129h-3.423l2.603-15.129zm-6.462-.372c1.952 0 3.648 1.304 3.648 4.287 0 .652-.085 1.801-.197 2.484l-1.472 8.73h-3.337l1.386-8.201c.085-.53.17-1.212.17-1.771 0-1.491-.537-2.485-1.923-2.485-1.698 0-3.509 2.237-4.046 5.529l-1.16 6.927h-3.31l1.416-8.356c.084-.59.169-1.118.169-1.615 0-1.273-.339-2.485-1.895-2.485-1.725 0-3.621 2.485-4.13 5.622l-1.131 6.834h-3.31l1.782-10.56c.282-1.741.509-3.263.65-4.568h2.998l-.339 2.734h.057c1.357-2.112 3.196-3.106 5.12-3.106 2.404 0 3.479 1.615 3.564 3.292 1.33-2.205 3.196-3.262 5.29-3.292z"/>
</svg>
