<svg xmlns="http://www.w3.org/2000/svg" width="96" height="40" viewBox="0 0 96 40">
    <path fill="#6F6F6E" fill-rule="evenodd" d="M54.315 9.593c-6.701-3.838-12.96-7.676-18.226-3.584l.314-.76c2.03-1.576 4.15-2.21 6.329-2.21 4.455-.001 9.16 2.648 13.86 5.297 7.156 4.034 14.299 8.067 20.527 2.747l.113.68c-7.69 6.246-15.57 2.038-22.917-2.17zM17.044 27.488c-1.238.44-2.502.812-3.796 1.107a18.124 18.124 0 0 1-3.8.46L22.153 7.5c1.36-2.042 2.211-4.593 5.443-4.593l7.24.057v13.849c-2.141 1.634-4.313 3.228-6.495 4.703V7.982l-1.465 2.456-9.833 17.05zm51.37-11.182c3.265 0 6.104 1.987 6.104 6.531 0 .994-.141 2.745-.331 3.786l-2.46 13.299h-5.585l2.32-12.495c.14-.804.283-1.845.283-2.697 0-2.272-.9-3.786-3.218-3.786-2.84 0-5.869 3.407-6.768 8.424l-1.94 10.554H51.28l2.366-12.73c.143-.9.284-1.705.284-2.462 0-1.94-.567-3.786-3.171-3.786-2.886 0-6.058 3.786-6.91 8.565l-1.892 10.413H36.42l2.982-16.09c.473-2.652.852-4.97 1.089-6.959h5.016l-.568 4.166h.094c2.272-3.218 5.349-4.733 8.567-4.733 4.023 0 5.821 2.46 5.963 5.016 2.225-3.36 5.348-4.97 8.85-5.016zm10.81.568H85l-4.402 23.048H74.87l4.355-23.048zm.391-4.438c0-2.083 1.657-3.36 3.454-3.36 1.752 0 3.124 1.182 3.124 3.028 0 2.035-1.561 3.361-3.549 3.361h-.047c-1.657 0-2.982-1.23-2.982-3.03zm10.61-6.4H96l-6.484 33.886h-5.774l6.483-33.886zM49.008 7.303c.703.362 1.414.75 2.133 1.153-5.6 3.646-10.818 8.152-16.303 12.207V39.92h-6.496v-14.87c-4.042 2.457-8.308 4.447-13.078 5.524l-5.39 9.346H3.041l5.217-8.85C4.031 30.48.482 28.385 0 27.349l.23-.576c2.786 2.327 7.435 3.839 13.018 2.57 13.409-3.051 23.475-14.468 35.76-22.04zm34.428-4.435C71.574-.51 62.498 1.886 54.421 6.456a77.827 77.827 0 0 0-2.053-1.086C58.013 2.36 64.19.32 71.388.32c3.717-.001 7.702.542 12.03 1.774l.018.774z"/>
</svg>
