<svg xmlns="http://www.w3.org/2000/svg" width="82" height="38" viewBox="0 0 82 38">
    <path fill="#B1AFAF" fill-rule="evenodd" d="M49.77 12.082l-.003.093c-.002.027-.007.053-.01.08a2.965 2.965 0 0 1-.559 1.465 2.886 2.886 0 0 1-.252-.41 3.075 3.075 0 0 1-.324-1.381c0-.636.192-1.272.576-1.792a3 3 0 0 1 .578 1.792c0 .051-.003.102-.006.153M58.302.928a.775.775 0 0 1-.222.583l-7.882 7.617a4.56 4.56 0 0 1 .935 2.8c0 1.041-.332 2.027-.94 2.81l7.887 7.744c.157.154.23.37.222.585a.78.78 0 0 1-.169.466.678.678 0 0 1-.192.16.627.627 0 0 1-.313.089.643.643 0 0 1-.452-.19l-7.978-7.832-7.977 7.832c-.02.02-.042.035-.063.052l-.04.032-.03.016a.629.629 0 0 1-.318.09.652.652 0 0 1-.506-.249.788.788 0 0 1-.172-.538.774.774 0 0 1 .225-.513l7.888-7.744c-1.093-1.41-1.231-3.413-.414-4.972.116-.223.253-.437.409-.638L40.317 1.51a.774.774 0 0 1-.225-.514.787.787 0 0 1 .172-.537.69.69 0 0 1 .248-.19.624.624 0 0 1 .598.042l.02.016A.669.669 0 0 1 41.22.4l7.977 7.709L57.176.4a.682.682 0 0 1 .108-.085l.035-.019a.61.61 0 0 1 .08-.04c.017-.007.034-.01.05-.015.024-.007.048-.015.073-.02l.055-.005c.017 0 .034-.004.05-.004l.017.001c.028.001.055.005.081.01.018.002.036.004.054.008a.62.62 0 0 1 .08.029c.016.006.033.01.049.019.028.014.054.032.08.05.013.009.027.016.04.026.037.03.073.065.105.105.11.135.164.3.17.468zM18.16.267c.17 0 .324.075.436.198a.71.71 0 0 1 .18.479v22.108c0 .283-.16.535-.4.634a.572.572 0 0 1-.216.043.592.592 0 0 1-.465-.232L1.234 2.751v20.301c0 .374-.277.677-.618.677a.568.568 0 0 1-.124-.014C.212 23.652 0 23.38 0 23.052V.944C0 .66.16.409.4.31a.58.58 0 0 1 .681.189l16.461 20.746V.944c0-.374.276-.677.617-.677zm63.058 0c.34 0 .616.303.616.677a.75.75 0 0 1-.012.136c-.058.309-.306.54-.604.54H71.019v21.432a.702.702 0 0 1-.21.506.583.583 0 0 1-.406.171c-.34 0-.617-.303-.617-.677V1.621h-9.193a.563.563 0 0 1-.202-.04.673.673 0 0 1-.415-.637c0-.374.276-.677.617-.677h20.624zM37.94 1.62H23.48v9.832h10.376c.02 0 .039.004.058.006.313.033.558.319.558.67 0 .374-.276.678-.616.678H23.48v9.568h14.46c.023 0 .044.005.066.008a.575.575 0 0 1 .21.068.61.61 0 0 1 .16.123c.111.122.18.291.18.479 0 .373-.276.676-.616.676H22.247V.267H37.94c.34 0 .616.303.616.677 0 .374-.276.677-.616.677zm6.33 31.877c.173.17.314.368.421.596.107.228.16.5.16.817 0 .375-.058.699-.175.97a1.855 1.855 0 0 1-.477.674 1.878 1.878 0 0 1-.699.387 2.888 2.888 0 0 1-.85.12c-.227 0-.453-.027-.677-.082a3.024 3.024 0 0 1-.644-.237 2.626 2.626 0 0 1-.562-.381 2.14 2.14 0 0 1-.428-.513l.633-.519c.195.31.45.541.764.695.315.155.637.232.965.232.174 0 .34-.024.498-.072.157-.047.295-.121.412-.22.117-.1.21-.23.281-.392.07-.162.106-.353.106-.574 0-.206-.044-.388-.13-.547a1.525 1.525 0 0 0-.353-.424 2.804 2.804 0 0 0-.502-.337c-.188-.1-.382-.197-.583-.293-.228-.11-.452-.222-.673-.336a2.746 2.746 0 0 1-.599-.414 1.997 1.997 0 0 1-.432-.563c-.11-.213-.165-.475-.165-.783 0-.317.058-.595.175-.834.118-.239.275-.438.473-.596.197-.158.422-.276.673-.353a2.811 2.811 0 0 1 2.005.16c.389.184.704.475.945.872l-.613.53a2.1 2.1 0 0 0-.669-.646 1.676 1.676 0 0 0-.89-.249c-.394 0-.701.098-.919.293-.217.195-.326.454-.326.778 0 .184.038.34.115.47.077.128.184.246.322.352.137.107.303.209.497.304l.654.32c.227.11.452.228.673.353.221.125.419.273.593.442zm5.917 2.296c-.154.147-.33.274-.527.38-.198.107-.414.16-.649.16-.107 0-.216-.016-.326-.05a.823.823 0 0 1-.302-.165.95.95 0 0 1-.226-.292.937.937 0 0 1-.09-.43c0-.266.068-.479.206-.641.137-.162.311-.285.522-.37.211-.084.441-.141.689-.17a8.31 8.31 0 0 1 .703-.056v1.634zm-.924-4.283c.536 0 .953.151 1.251.453.298.302.447.805.447 1.512v3.432h-.703l-.04-.452c-.168.184-.36.325-.578.425-.218.1-.458.149-.72.149-.207 0-.41-.035-.607-.105a1.53 1.53 0 0 1-.523-.309 1.547 1.547 0 0 1-.367-.513 1.714 1.714 0 0 1-.14-.718c0-.375.092-.684.276-.927.184-.243.417-.436.699-.58.281-.143.593-.244.934-.303.342-.059.674-.088.995-.088v-.067c0-.441-.085-.757-.256-.949-.17-.19-.417-.287-.739-.287-.22 0-.423.054-.608.16a1.49 1.49 0 0 0-.467.425l-.543-.419a1.87 1.87 0 0 1 .689-.635c.264-.136.598-.204 1-.204zm7.107-2.55l.512.574-1.819 1.369-.372-.408 1.679-1.535zm.442 6.8v-4.117h.784v5.264h-.714l-.05-.408a2.49 2.49 0 0 1-.633.386c-.228.096-.513.144-.855.144-.63 0-1.087-.17-1.371-.508-.285-.338-.428-.853-.428-1.545v-3.333h.774v3.377c0 .464.097.8.292 1.01.194.21.482.314.864.314.248 0 .494-.056.739-.17.244-.115.444-.253.598-.415zm6.774-.011a1.383 1.383 0 0 1-.523.457 1.372 1.372 0 0 1-.593.138 1.29 1.29 0 0 1-.658-.16 1.395 1.395 0 0 1-.462-.435 1.978 1.978 0 0 1-.277-.657 3.546 3.546 0 0 1-.09-.823c0-.257.033-.51.1-.761.067-.25.17-.473.307-.668.137-.195.31-.351.517-.469.208-.118.453-.177.734-.177.087 0 .178.008.271.022a2.197 2.197 0 0 1 .508.144c.07.03.126.059.166.088v3.3zm0-4.04v-2.163h.774v7.361h-.714l-.06-.43a1.55 1.55 0 0 1-.568.425 1.733 1.733 0 0 1-.668.127c-.342 0-.646-.072-.91-.215a1.98 1.98 0 0 1-.668-.59 2.737 2.737 0 0 1-.412-.89 4.177 4.177 0 0 1-.141-1.109c0-.338.049-.67.146-.999.097-.327.24-.618.432-.872.19-.253.43-.458.718-.612a2.095 2.095 0 0 1 1.006-.232c.24 0 .448.02.623.06.174.041.321.088.442.139zm4.41 1.843c.087-.493.247-.844.478-1.054.231-.21.507-.315.829-.315.147 0 .295.028.442.083.147.055.278.14.392.254.114.114.208.258.282.43.073.173.113.374.12.602h-2.543zm3.287-.425a2.529 2.529 0 0 0-.392-.86 1.8 1.8 0 0 0-.658-.558 2.052 2.052 0 0 0-.93-.199c-.322 0-.615.065-.88.193-.264.129-.489.313-.673.552a2.71 2.71 0 0 0-.432.861 3.817 3.817 0 0 0-.156 1.131c0 .457.055.858.166 1.203.11.346.268.635.472.867.205.232.451.408.74.53.287.121.612.182.974.182.47 0 .843-.109 1.12-.326.279-.217.505-.49.679-.822l-.512-.375a1.877 1.877 0 0 1-.503.596 1.204 1.204 0 0 1-.764.242c-.523 0-.921-.187-1.196-.562-.275-.375-.412-.894-.412-1.557h3.488a4.36 4.36 0 0 0-.131-1.098z"/>
</svg>
