<svg xmlns="http://www.w3.org/2000/svg" width="55" height="45" viewBox="0 0 55 45">
    <path fill="#B1AFAF" fill-rule="evenodd" d="M26.972 4.94C6.174-3.303 1.198 4.66.292 7.94H0C.368 4.85 6.966-5.08 27.52 3.365c20.798 8.244 25.75.277 26.657-3.003h.292c-.369 3.09-6.943 13.024-27.497 4.577zm-5.716 28.601h2.857V10.794h-2.857v-.465h5.508l8.7 18.125h.052v-17.66h-2.858v-.465h20.726v5.754h-.283a18.677 18.677 0 0 0-.72-2.262c-.258-.665-.567-1.22-.927-1.663a3.34 3.34 0 0 0-1.287-1.03c-.497-.222-1.098-.334-1.801-.334h-4.273V21.07h1.673c.566 0 1.047-.066 1.442-.199a2.105 2.105 0 0 0 1.003-.731c.292-.378.532-.876.72-1.497.207-.643.404-1.464.593-2.461h.283v10.342h-.283c-.12-.642-.249-1.263-.386-1.862-.12-.599-.3-1.13-.541-1.596a2.693 2.693 0 0 0-.926-1.098c-.378-.288-.875-.432-1.493-.432h-2.085v12.005h4.865c.943 0 1.724-.255 2.342-.764a6.61 6.61 0 0 0 1.544-1.863 9.437 9.437 0 0 0 .875-2.261c.19-.776.31-1.42.361-1.929h.283v7.283H38.662v-.466h2.857V10.794H35.9v23.678h-.514L24.55 12.158H24.5V33.54h2.857v.466h-6.1v-.466zM.774 20.04c0-2.086.313-4.016.938-5.79.647-1.773 1.464-3.312 2.453-4.616 1.01-1.305 2.14-2.322 3.392-3.052 1.252-.757 2.504-1.135 3.755-1.135 1.332 0 2.624.378 3.876 1.135 1.272.73 2.403 1.747 3.392 3.052.989 1.304 1.776 2.843 2.362 4.616.606 1.774.908 3.704.908 5.79 0 1.826-.272 3.613-.817 5.36-.546 1.749-1.292 3.3-2.241 4.656-.95 1.356-2.07 2.452-3.362 3.286-1.272.835-2.644 1.252-4.118 1.252a7.794 7.794 0 0 1-4.21-1.212c-1.291-.808-2.412-1.878-3.36-3.208-.93-1.357-1.656-2.909-2.18-4.656a19.199 19.199 0 0 1-.788-5.478zm3.483 0c0 2.348.12 4.396.363 6.143.242 1.748.645 3.208 1.21 4.382.566 1.174 1.293 2.048 2.181 2.622.888.573 1.989.86 3.301.86 1.292 0 2.382-.287 3.27-.86.909-.574 1.646-1.448 2.211-2.622.566-1.174.97-2.634 1.212-4.382.242-1.747.363-3.795.363-6.143 0-1.8-.09-3.534-.273-5.203-.182-1.696-.535-3.195-1.06-4.5-.504-1.33-1.221-2.385-2.15-3.168-.908-.783-2.1-1.174-3.573-1.174-1.474 0-2.675.391-3.603 1.174-.909.783-1.625 1.839-2.15 3.169-.506 1.304-.848 2.803-1.03 4.499a48.087 48.087 0 0 0-.272 5.203zM50.34 40.384h2.493v-1.983c0-.355-.017-.588-.052-.7a.434.434 0 0 0-.166-.22.608.608 0 0 0-.36-.123h-.19v-.19h2.295v.19h-.19a.624.624 0 0 0-.36.117.42.42 0 0 0-.174.251c-.03.11-.044.334-.044.675v4.472c0 .351.018.583.052.695a.434.434 0 0 0 .162.22.62.62 0 0 0 .364.123h.19v.189h-2.295v-.19h.19c.219 0 .379-.083.48-.25.065-.11.098-.371.098-.787v-2.11H50.34v2.11c0 .351.018.583.052.695a.427.427 0 0 0 .166.22.605.605 0 0 0 .36.123h.194v.189h-2.299v-.19h.19c.222 0 .383-.083.483-.25.063-.11.095-.371.095-.787V38.4c0-.355-.017-.588-.052-.7a.438.438 0 0 0-.162-.22.625.625 0 0 0-.364-.123h-.19v-.19h2.299v.19h-.194a.624.624 0 0 0-.36.117.426.426 0 0 0-.17.251c-.032.11-.048.334-.048.675v1.983zm-1.926-3.215l.06 1.625h-.151c-.03-.286-.07-.49-.12-.613a.93.93 0 0 0-.327-.434c-.135-.096-.313-.144-.534-.144h-.756V42.9c0 .426.035.692.107.797.1.143.254.215.463.215h.186v.189h-2.275v-.19h.19c.226 0 .387-.088.482-.265.058-.11.087-.358.087-.746v-5.296h-.645c-.25 0-.428.024-.534.072-.137.064-.254.19-.352.373-.098.184-.156.433-.174.746h-.15l.063-1.625h4.38zm-4.993 5.014l.13.036-.459 1.881H38.94v-.19h.201c.227 0 .39-.094.487-.285.055-.11.083-.361.083-.757v-4.472c0-.433-.037-.704-.11-.813-.104-.15-.257-.225-.46-.225h-.201v-.19h2.428v.19c-.284-.003-.485.03-.6.102a.556.556 0 0 0-.234.271c-.043.11-.063.37-.063.782v4.355c0 .283.02.477.063.582.032.072.08.125.146.16.066.033.272.05.618.05h.391c.412 0 .7-.039.867-.117.166-.078.318-.217.455-.415.137-.2.274-.515.411-.945zm-6.9-.782l-.91-2.801-.933 2.8h1.844zm.111.378h-2.077l-.364 1.094c-.09.27-.134.47-.134.603a.4.4 0 0 0 .114.281c.08.079.248.13.507.154v.189h-1.69v-.19c.225-.05.37-.117.436-.199.134-.163.283-.495.447-.996l1.887-5.705h.138l1.867 5.766c.15.464.286.765.408.905a.74.74 0 0 0 .514.23v.189H36.57v-.19c.213-.013.357-.06.43-.137a.395.395 0 0 0 .116-.286c0-.15-.053-.388-.159-.711l-.324-.997zm-6.963-4.232v2.74h1.179c.306 0 .51-.06.613-.18.137-.156.214-.432.23-.827h.146v2.413h-.146c-.037-.338-.075-.554-.111-.65a.576.576 0 0 0-.234-.28c-.108-.069-.274-.103-.498-.103h-1.18v2.285c0 .306.011.494.032.562a.326.326 0 0 0 .111.159c.053.037.153.056.3.056h.911c.304 0 .524-.028.661-.082a.994.994 0 0 0 .396-.322c.163-.212.33-.53.502-.956h.158l-.463 1.738h-4.134v-.19h.19c.127 0 .246-.038.36-.117a.4.4 0 0 0 .17-.245c.032-.11.048-.332.048-.67v-4.503c0-.44-.035-.71-.104-.813-.095-.136-.253-.204-.474-.204h-.19v-.19h4.134l.06 1.519h-.155c-.055-.364-.117-.615-.185-.752a.689.689 0 0 0-.298-.311c-.105-.052-.29-.077-.557-.077H29.67zm-6.618 2.181h2.933v-2.333c0-.417-.02-.692-.06-.824a.502.502 0 0 0-.196-.259.712.712 0 0 0-.424-.144h-.223v-.223h2.7v.223h-.224a.735.735 0 0 0-.424.138.494.494 0 0 0-.204.295c-.035.128-.052.393-.052.794v5.262c0 .412.02.685.06.817.032.1.095.187.192.26a.731.731 0 0 0 .428.143h.223v.223h-2.7v-.223h.224c.258 0 .445-.098.563-.294.078-.128.117-.437.117-.926v-2.484h-2.933v2.484c0 .412.02.685.061.817.031.1.096.187.195.26a.713.713 0 0 0 .424.143h.228v.223h-2.704v-.223h.223c.26 0 .45-.098.568-.294.074-.128.112-.437.112-.926v-5.262c0-.417-.02-.692-.06-.824a.513.513 0 0 0-.192-.259.734.734 0 0 0-.428-.144h-.223v-.223h2.704v.223h-.228a.735.735 0 0 0-.424.138.501.501 0 0 0-.2.295c-.037.128-.056.393-.056.794v2.333z"/>
</svg>
